<svg xmlns="http://www.w3.org/2000/svg" xmlns:svg="http://www.w3.org/2000/svg" id="svg2" width="270.187" height="314.182" version="1.1" viewBox="0 0 253.301 294.546"><metadata id="metadata7"/><g id="layer1" transform="translate(-442.54352,-683.01309)" style="display:none"><path id="path4154" d="m 540.83047,846.96327 23.57233,40.52212 0.0173,-61.27622 -51.34911,-29.24091 21.12414,40.11131 -90.16394,52.55624 119.03786,-206.61415 0.84158,104.77362 -45.76772,-2e-4 51.18107,31.51852 51.63812,-31.51852 -46.2247,1.9e-4 8e-5,-104.77319 119.61655,205.95708 -90.08907,-52.08668 22.43669,-40.76812 -51.96413,30.08473 0,61.276 23.89032,-39.65045 89.74145,52.14945 -119.09449,0 -120.02955,-0.0164 z" style="opacity:1;fill:#000;fill-opacity:1;stroke:none;stroke-width:0;stroke-linecap:round;stroke-miterlimit:4;stroke-dasharray:none;stroke-dashoffset:0;stroke-opacity:1"/><g style="font-style:normal;font-variant:normal;font-weight:400;font-stretch:condensed;font-size:90px;line-height:125%;font-family:'Agency FB';-inkscape-font-specification:'Agency FB, Condensed';text-align:start;letter-spacing:0;word-spacing:0;writing-mode:lr-tb;text-anchor:start;fill:#000;fill-opacity:1;stroke:none;stroke-width:1px;stroke-linecap:butt;stroke-linejoin:miter;stroke-opacity:1" id="text4156"><path d="m 472.99762,977.55908 -6.06445,0 -2.417,-15.29297 -13.66699,0 -2.41699,15.29297 -5.88867,0 0,-0.17578 12.26074,-68.77441 6.02051,0 12.17285,68.95019 z m -9.27246,-20.69824 -6.02051,-37.26563 -6.06445,37.26563 12.08496,0 z" style="font-style:normal;font-variant:normal;font-weight:400;font-stretch:condensed;font-size:90px;line-height:125%;font-family:'Agency FB';-inkscape-font-specification:'Agency FB, Condensed';text-align:start;letter-spacing:0;writing-mode:lr-tb;text-anchor:start;fill:#000" id="path4161"/><path d="m 503.27594,977.55908 -21.97266,0 0,-68.77441 6.1084,0 0,63.36914 15.86426,0 0,5.40527 z" style="font-style:normal;font-variant:normal;font-weight:400;font-stretch:condensed;font-size:90px;line-height:125%;font-family:'Agency FB';-inkscape-font-specification:'Agency FB, Condensed';text-align:start;letter-spacing:0;writing-mode:lr-tb;text-anchor:start;fill:#000" id="path4163"/><path d="m 533.51031,977.55908 -21.97265,0 0,-68.77441 6.1084,0 0,63.36914 15.86425,0 0,5.40527 z" style="font-style:normal;font-variant:normal;font-weight:400;font-stretch:condensed;font-size:90px;line-height:125%;font-family:'Agency FB';-inkscape-font-specification:'Agency FB, Condensed';text-align:start;letter-spacing:0;writing-mode:lr-tb;text-anchor:start;fill:#000" id="path4165"/><path d="m 548.23199,977.55908 -6.10839,0 0,-68.77441 6.10839,0 0,68.77441 z" style="font-style:normal;font-variant:normal;font-weight:400;font-stretch:condensed;font-size:90px;line-height:125%;font-family:'Agency FB';-inkscape-font-specification:'Agency FB, Condensed';text-align:start;letter-spacing:0;writing-mode:lr-tb;text-anchor:start;fill:#000" id="path4167"/><path d="m 587.43121,977.55908 -6.06445,0 -2.41699,-15.29297 -13.66699,0 -2.417,15.29297 -5.88867,0 0,-0.17578 12.26074,-68.77441 6.02051,0 12.17285,68.95019 z m -9.27246,-20.69824 -6.02051,-37.26563 -6.06445,37.26563 12.08496,0 z" style="font-style:normal;font-variant:normal;font-weight:400;font-stretch:condensed;font-size:90px;line-height:125%;font-family:'Agency FB';-inkscape-font-specification:'Agency FB, Condensed';text-align:start;letter-spacing:0;writing-mode:lr-tb;text-anchor:start;fill:#000" id="path4169"/><path d="m 624.0816,977.55908 -4.21875,0 -18.36914,-50.58105 0,50.58105 -5.75683,0 0,-68.77441 4.57031,0 18.01758,49.70215 0,-49.70215 5.75683,0 0,68.77441 z" style="font-style:normal;font-variant:normal;font-weight:400;font-stretch:condensed;font-size:90px;line-height:125%;font-family:'Agency FB';-inkscape-font-specification:'Agency FB, Condensed';text-align:start;letter-spacing:0;writing-mode:lr-tb;text-anchor:start;fill:#000" id="path4171"/><path d="m 662.48981,972.68115 q 0,2.15332 -1.40625,3.51563 -1.40625,1.3623 -3.55957,1.3623 l -17.70996,0 q -2.15332,0 -3.51563,-1.3623 -1.3623,-1.36231 -1.3623,-3.51563 l 0,-59.01855 q 0,-2.15332 1.3623,-3.51563 1.36231,-1.3623 3.51563,-1.3623 l 17.70996,0 q 2.15332,0 3.55957,1.3623 1.40625,1.36231 1.40625,3.51563 l 0,15.99609 -6.15235,0 0,-15.46875 -15.29297,0 0,57.96387 15.29297,0 0,-16.91895 6.15235,0 0,17.44629 z" style="font-style:normal;font-variant:normal;font-weight:400;font-stretch:condensed;font-size:90px;line-height:125%;font-family:'Agency FB';-inkscape-font-specification:'Agency FB, Condensed';text-align:start;letter-spacing:0;writing-mode:lr-tb;text-anchor:start;fill:#000" id="path4173"/><path d="m 695.8443,977.55908 -22.58789,0 0,-68.77441 22.32422,0 0,5.40527 -16.21582,0 0,25.66406 14.76562,0 0,5.49317 -14.76562,0 0,26.80664 16.47949,0 0,5.40527 z" style="font-style:normal;font-variant:normal;font-weight:400;font-stretch:condensed;font-size:90px;line-height:125%;font-family:'Agency FB';-inkscape-font-specification:'Agency FB, Condensed';text-align:start;letter-spacing:0;writing-mode:lr-tb;text-anchor:start;fill:#000" id="path4175"/></g><path style="opacity:1;fill:#000;fill-opacity:1;stroke:none;stroke-width:0;stroke-linecap:round;stroke-miterlimit:4;stroke-dasharray:none;stroke-dashoffset:0;stroke-opacity:1" id="path4151" d="m 540.83047,846.96327 23.57233,40.52212 0.0173,-61.27622 -51.34911,-29.24091 21.12414,40.11131 -90.16394,52.55624 119.03786,-206.61415 0.84158,104.77362 -45.76772,-2e-4 51.18107,31.51852 51.63812,-31.51852 -46.2247,1.9e-4 8e-5,-104.77319 119.61655,205.95708 -90.08907,-52.08668 22.43669,-40.76812 -51.96413,30.08473 0,61.276 23.89032,-39.65045 89.74145,52.14945 -119.09449,0 -120.02955,-0.0164 z"/></g><g id="layer2" style="display:inline;opacity:1"><path style="display:inline;opacity:1;fill:#000;stroke:none" id="path4157" d="M 120.64648,-1.1308594 0.83203125,206.39648 92.681641,153.36719 70.667969,115.24023 l 49.978511,28.90975 0.0508,57.7426 -22.013676,-38.12891 -91.8496096,53.03125 239.6328156,0 -91.84961,-53.03125 -22.01367,38.12891 0.0508,-57.74098 49.97851,-28.91137 -22.01367,38.12696 91.84961,53.02929 -119.81445,-207.5273394 0,106.0605494 44.02539,0 -50.02929,28.82566 -50.029306,-28.82566 44.025386,0 z"/><g id="g4203" transform="translate(-442.54352,-683.01309)" style="font-style:normal;font-variant:normal;font-weight:400;font-stretch:condensed;font-size:90px;line-height:125%;font-family:'Agency FB';-inkscape-font-specification:'Agency FB, Condensed';text-align:start;letter-spacing:0;word-spacing:0;writing-mode:lr-tb;text-anchor:start;display:inline;fill:#000;fill-opacity:1;stroke:none;stroke-width:1px;stroke-linecap:butt;stroke-linejoin:miter;stroke-opacity:1"><path id="path4205" style="font-style:normal;font-variant:normal;font-weight:400;font-stretch:condensed;font-size:90px;line-height:125%;font-family:'Agency FB';-inkscape-font-specification:'Agency FB, Condensed';text-align:start;letter-spacing:0;writing-mode:lr-tb;text-anchor:start;fill:#000" d="m 472.99762,977.55908 -6.06445,0 -2.417,-15.29297 -13.66699,0 -2.41699,15.29297 -5.88867,0 0,-0.17578 12.26074,-68.77441 6.02051,0 12.17285,68.95019 z m -9.27246,-20.69824 -6.02051,-37.26563 -6.06445,37.26563 12.08496,0 z"/><path id="path4207" style="font-style:normal;font-variant:normal;font-weight:400;font-stretch:condensed;font-size:90px;line-height:125%;font-family:'Agency FB';-inkscape-font-specification:'Agency FB, Condensed';text-align:start;letter-spacing:0;writing-mode:lr-tb;text-anchor:start;fill:#000" d="m 503.27594,977.55908 -21.97266,0 0,-68.77441 6.1084,0 0,63.36914 15.86426,0 0,5.40527 z"/><path id="path4209" style="font-style:normal;font-variant:normal;font-weight:400;font-stretch:condensed;font-size:90px;line-height:125%;font-family:'Agency FB';-inkscape-font-specification:'Agency FB, Condensed';text-align:start;letter-spacing:0;writing-mode:lr-tb;text-anchor:start;fill:#000" d="m 533.51031,977.55908 -21.97265,0 0,-68.77441 6.1084,0 0,63.36914 15.86425,0 0,5.40527 z"/><path id="path4211" style="font-style:normal;font-variant:normal;font-weight:400;font-stretch:condensed;font-size:90px;line-height:125%;font-family:'Agency FB';-inkscape-font-specification:'Agency FB, Condensed';text-align:start;letter-spacing:0;writing-mode:lr-tb;text-anchor:start;fill:#000" d="m 548.23199,977.55908 -6.10839,0 0,-68.77441 6.10839,0 0,68.77441 z"/><path id="path4213" style="font-style:normal;font-variant:normal;font-weight:400;font-stretch:condensed;font-size:90px;line-height:125%;font-family:'Agency FB';-inkscape-font-specification:'Agency FB, Condensed';text-align:start;letter-spacing:0;writing-mode:lr-tb;text-anchor:start;fill:#000" d="m 587.43121,977.55908 -6.06445,0 -2.41699,-15.29297 -13.66699,0 -2.417,15.29297 -5.88867,0 0,-0.17578 12.26074,-68.77441 6.02051,0 12.17285,68.95019 z m -9.27246,-20.69824 -6.02051,-37.26563 -6.06445,37.26563 12.08496,0 z"/><path id="path4215" style="font-style:normal;font-variant:normal;font-weight:400;font-stretch:condensed;font-size:90px;line-height:125%;font-family:'Agency FB';-inkscape-font-specification:'Agency FB, Condensed';text-align:start;letter-spacing:0;writing-mode:lr-tb;text-anchor:start;fill:#000" d="m 624.0816,977.55908 -4.21875,0 -18.36914,-50.58105 0,50.58105 -5.75683,0 0,-68.77441 4.57031,0 18.01758,49.70215 0,-49.70215 5.75683,0 0,68.77441 z"/><path id="path4217" style="font-style:normal;font-variant:normal;font-weight:400;font-stretch:condensed;font-size:90px;line-height:125%;font-family:'Agency FB';-inkscape-font-specification:'Agency FB, Condensed';text-align:start;letter-spacing:0;writing-mode:lr-tb;text-anchor:start;fill:#000" d="m 662.48981,972.68115 q 0,2.15332 -1.40625,3.51563 -1.40625,1.3623 -3.55957,1.3623 l -17.70996,0 q -2.15332,0 -3.51563,-1.3623 -1.3623,-1.36231 -1.3623,-3.51563 l 0,-59.01855 q 0,-2.15332 1.3623,-3.51563 1.36231,-1.3623 3.51563,-1.3623 l 17.70996,0 q 2.15332,0 3.55957,1.3623 1.40625,1.36231 1.40625,3.51563 l 0,15.99609 -6.15235,0 0,-15.46875 -15.29297,0 0,57.96387 15.29297,0 0,-16.91895 6.15235,0 0,17.44629 z"/><path id="path4219" style="font-style:normal;font-variant:normal;font-weight:400;font-stretch:condensed;font-size:90px;line-height:125%;font-family:'Agency FB';-inkscape-font-specification:'Agency FB, Condensed';text-align:start;letter-spacing:0;writing-mode:lr-tb;text-anchor:start;fill:#000" d="m 695.8443,977.55908 -22.58789,0 0,-68.77441 22.32422,0 0,5.40527 -16.21582,0 0,25.66406 14.76562,0 0,5.49317 -14.76562,0 0,26.80664 16.47949,0 0,5.40527 z"/></g></g></svg>